# This file uses centimeters as units for non-parametric coordinates.

mtllib basic_cube_GEO.mtl
g default
v -1.000000 -1.000000 -1.000000
v 1.000000 -1.000000 -1.000000
v -1.000000 -1.000000 1.000000
v 1.000000 -1.000000 1.000000
v -1.000000 1.000000 1.000000
v 1.000000 1.000000 1.000000
v -1.000000 1.000000 -1.000000
v 1.000000 1.000000 -1.000000
vt 0.249991 0.749972
vt 0.249954 0.999963
vt 0.250064 0.249991
vt 0.500092 0.000037
vt 0.500018 0.500018
vt 0.500055 0.250028
vt 0.499982 0.750009
vt 0.250028 0.499982
vt 0.750009 0.500055
vt 0.749972 0.750046
vt 0.499945 1.000000
vt 0.000000 0.749936
vt 0.250101 0.000000
vt 0.000037 0.499945
vn 0.000000 1.000000 0.000000
vn 0.000000 1.000000 0.000000
vn 0.000000 1.000000 0.000000
vn 0.000000 0.000000 -1.000000
vn 0.000000 0.000000 -1.000000
vn 0.000000 0.000000 -1.000000
vn 0.000000 -1.000000 -0.000000
vn 0.000000 -1.000000 -0.000000
vn 0.000000 -1.000000 -0.000000
vn 0.000000 -0.000000 1.000000
vn 0.000000 -0.000000 1.000000
vn 0.000000 -0.000000 1.000000
vn -1.000000 0.000000 0.000000
vn -1.000000 0.000000 0.000000
vn -1.000000 0.000000 0.000000
vn 1.000000 -0.000000 0.000000
vn 1.000000 -0.000000 0.000000
vn 1.000000 -0.000000 0.000000
vn 0.000000 1.000000 0.000000
vn -1.000000 0.000000 0.000000
vn 0.000000 -1.000000 -0.000000
vn 1.000000 -0.000000 0.000000
vn 0.000000 0.000000 -1.000000
vn 0.000000 -0.000000 1.000000
g base_cube_GEO
usemtl initialShadingGroup
f 1/1/1 3/12/2 4/14/3
f 3/13/4 5/4/5 4/3/6
f 5/10/7 8/5/8 6/9/9
f 7/7/10 1/1/11 8/5/12
f 2/8/13 4/3/14 6/6/15
f 7/7/16 5/11/17 3/2/18
f 1/1/1 4/14/3 2/8/19
f 2/8/13 6/6/15 8/5/20
f 5/10/7 7/7/21 8/5/8
f 7/7/16 3/2/18 1/1/22
f 5/4/5 6/6/23 4/3/6
f 1/1/11 2/8/24 8/5/12
